<?xml version="1.0" standalone="no"?>
<!DOCTYPE svg PUBLIC "-//W3C//DTD SVG 1.1//EN" "http://www.w3.org/Graphics/SVG/1.1/DTD/svg11.dtd" >
<svg xmlns="http://www.w3.org/2000/svg">
<metadata></metadata>
<defs>
<font id="DINCERegular" horiz-adv-x="1069" >
<font-face units-per-em="2048" ascent="1638" descent="-410" />
<missing-glyph horiz-adv-x="509" />
<glyph horiz-adv-x="0" />
<glyph unicode="&#xd;" horiz-adv-x="509" />
<glyph horiz-adv-x="0" />
<glyph horiz-adv-x="0" />
<glyph unicode=" "  horiz-adv-x="509" />
<glyph unicode="&#x09;" horiz-adv-x="509" />
<glyph unicode="&#xa0;" horiz-adv-x="509" />
<glyph unicode="!" horiz-adv-x="647" d="M266 0v172h176v-172h-176zM270 1458h170l-22 -1048h-127z" />
<glyph unicode="&#x22;" horiz-adv-x="866" d="M180 1110v348h162v-348h-162zM524 1110v348h162v-348h-162z" />
<glyph unicode="#" horiz-adv-x="1337" d="M158 465v131h204l48 289h-189v135h207l70 440h153l-71 -440h325l70 440h149l-69 -440h178v-135h-197l-47 -289h182v-131h-202l-74 -465h-152l74 465h-328l-71 -465h-152l74 465h-182zM512 596h326l47 289h-326z" />
<glyph unicode="$" horiz-adv-x="1220" d="M86 180l107 107q82 -82 164.5 -118t187.5 -40v543l-41 4q-152 14 -266 110q-113 100 -113 273.5t109.5 283t302.5 125.5v183h122v-183q119 -6 207 -44t174 -113l-100 -101q-59 53 -125.5 85t-161.5 38v-530l64 -10q183 -29 264 -103q125 -108 125 -288q0 -175 -122 -288 q-120 -110 -325 -122v-225h-122v221q-145 6 -250 51t-201 141zM279 1067q0 -113 65 -170q75 -61 201 -80v516q-129 -10 -197.5 -81.5t-68.5 -184.5zM653 129q139 10 218 79.5t79 188t-61 173.5t-115.5 65t-120.5 20v-526z" />
<glyph unicode="%" horiz-adv-x="1705" d="M133 981v215q0 127 78 202t198 75t198.5 -75t78.5 -202v-215q0 -125 -79 -199.5t-198.5 -74.5t-197.5 74.5t-78 199.5zM250 985q0 -176 160 -176q159 0 159 176v207q0 178 -159 178q-86 0 -123 -47t-37 -131v-207zM451 0l684 1458h122l-684 -1458h-122zM1022 262v215 q0 127 78 202t197.5 75t198.5 -75t79 -202v-215q0 -127 -79 -201.5t-199 -74.5t-197.5 74.5t-77.5 201.5zM1139 266q0 -84 36.5 -131t122.5 -47q160 0 160 178v207q0 178 -160 178q-86 0 -122.5 -47t-36.5 -131v-207z" />
<glyph unicode="&#x26;" horiz-adv-x="1513" d="M158 412q0 208 198 353q58 42 117 83q-78 95 -103 138q-55 90 -55 167.5t23.5 132.5t67.5 96q93 88 231 88q135 0 227 -88q90 -86 90 -219q0 -150 -161 -260q-20 -16 -38.5 -28.5t-38.5 -23.5t-32 -22l373 -448q82 118 82 334h147q-4 -291 -135 -447l223 -268h-194 l-131 160q-85 -74 -144 -104q-137 -68 -265 -68t-213 30.5t-145 85.5q-124 114 -124 308zM309 416q0 -129 86 -211q84 -80 221 -80q82 0 166 28.5t179 112.5l-402 484q-130 -91 -169 -134q-81 -91 -81 -200zM469 1178.5q0 -62.5 29.5 -112.5t101.5 -138q32 19 47 33 q162 93 162 207q0 69 -49 119t-124 50t-121 -48t-46 -110.5z" />
<glyph unicode="'" horiz-adv-x="522" d="M180 1110v348h162v-348h-162z" />
<glyph unicode="(" horiz-adv-x="610" d="M188 195v1069q0 131 43 211q29 51 64 89t84 87l100 -101q-35 -35 -63 -64q-80 -83 -80 -235v-1044q0 -152 80 -235q28 -29 63 -64l-100 -101q-49 49 -84 87q-87 94 -100 194q-7 53 -7 107z" />
<glyph unicode=")" horiz-adv-x="610" d="M127 -88l63 64q60 59 72 141q6 41 6 90v1044q0 108 -24 155.5t-53 76t-64 63.5l104 105q49 -49 84 -87q88 -96 99 -194q6 -53 6 -106v-1069q0 -53 -6 -107q-11 -96 -98 -193q-35 -38 -85 -88z" />
<glyph unicode="*" horiz-adv-x="970" d="M137 967l246 133l-246 135l60 98l237 -145l-8 280h119l-8 -280l239 145l58 -98l-246 -135l246 -133l-58 -101l-239 146l8 -281h-119l8 281l-237 -146z" />
<glyph unicode="+" d="M106 479v137h361v357h137v-357h359v-137h-359v-360h-137v360h-361z" />
<glyph unicode="," horiz-adv-x="540" d="M180 180h180v-313l-180 -162v475z" />
<glyph unicode="-" horiz-adv-x="872" d="M156 483v138h561v-138h-561z" />
<glyph unicode="." horiz-adv-x="552" d="M180 0v193h193v-193h-193z" />
<glyph unicode="/" horiz-adv-x="727" d="M0 -152l584 1762h145l-584 -1762h-145z" />
<glyph unicode="0" d="M135 389v680q0 179 115 292q111 109 285 109q173 0 284 -109q115 -113 115 -292v-680q0 -178 -115 -291q-111 -110 -284 -110q-174 0 -285 110q-115 113 -115 291zM283 397q0 -121 64.5 -199.5t187.5 -78.5t187 78.5t64 199.5v664q0 121 -64.5 199.5t-186.5 78.5 q-123 0 -187.5 -78.5t-64.5 -199.5v-664z" />
<glyph unicode="1" d="M256 1055v168l272 235h148v-1458h-148v1294z" />
<glyph unicode="2" d="M139 0v131l576 731q82 106 82 220t-66.5 185.5t-187.5 71.5q-174 0 -233 -144q-21 -50 -21 -120h-148q0 174 110 284q111 111 292 111q179 0 291 -106q110 -105 110 -287q0 -88 -28.5 -152.5t-88.5 -142.5l-510 -651h627v-131h-805z" />
<glyph unicode="3" d="M86 371h147q7 -127 93 -195q74 -59 190.5 -59t197.5 73.5t81 207.5t-69 209t-218 75h-31v129h31q135 0 197.5 70.5t62.5 197.5t-73.5 194.5t-185.5 67.5t-179.5 -65.5t-77.5 -177.5h-148q12 172 128 275q114 100 282 100q179 0 290 -109t111 -287q0 -236 -196 -323 q223 -85 223 -357q0 -192 -125 -306q-115 -105 -303 -105q-282 0 -388 214q-36 72 -40 171z" />
<glyph unicode="4" d="M82 231v134l526 1093h158l-526 -1093h424v413h145v-413h178v-134h-178v-231h-145v231h-582z" />
<glyph unicode="5" d="M143 344h148q14 -111 72.5 -169t173.5 -58t182 67q71 71 78 217q2 41 2 94.5t-9.5 117t-35.5 112.5q-57 111 -201 111q-96 0 -157.5 -39t-84.5 -105h-133v766h737v-131h-604v-463q92 101 262 101q159 0 252 -93q103 -109 117 -288q4 -52 4 -133t-19.5 -180t-84 -163.5 t-135 -93t-167.5 -28.5q-190 0 -294 104q-88 92 -103 254z" />
<glyph unicode="6" d="M133 408q0 147 92 327l359 723h151l-325 -655q68 31 153 31q169 0 275 -117q104 -116 104 -298q0 -91 -28.5 -171t-81.5 -138q-111 -122 -293 -122q-188 0 -297 114q-109 116 -109 306zM281 414q0 -135 69.5 -215t186.5 -80t187.5 80t70.5 215q0 200 -147 272 q-48 23 -111 23q-117 0 -186.5 -80t-69.5 -215z" />
<glyph unicode="7" d="M156 1098v360h809v-131l-506 -1327h-156l506 1327h-508v-229h-145z" />
<glyph unicode="8" d="M104 401q0 227 220 355q-191 109 -191 323q0 172 114 282q113 109 288 109q173 0 287 -109q114 -108 114 -282q0 -216 -188 -323q92 -53 154.5 -139.5t62.5 -197t-33 -186t-92 -131.5q-120 -114 -305 -114q-186 0 -307 114q-124 119 -124 299zM252 403q0 -119 81 -202 q80 -82 202 -82q121 0 201 82q81 83 81 202q0 120 -81 203q-80 82 -201 82q-122 0 -202 -82q-81 -83 -81 -203zM281 1076q0 -116 70.5 -187.5t183.5 -71.5t183 71.5t70 187.5t-70.5 189.5t-182.5 73.5q-113 0 -183.5 -73.5t-70.5 -189.5z" />
<glyph unicode="9" d="M127 1038q0 190 109 310q112 122 294 122q188 0 296 -114q110 -116 110 -284.5t-92 -348.5l-359 -723h-153l327 655q-68 -31 -154.5 -30.5t-156 31t-118.5 86.5q-103 114 -103 296zM274 1044q0 -126 65 -207q70 -87 189 -87t189.5 79.5t70.5 214.5t-70.5 215t-187.5 80 t-186.5 -79.5t-69.5 -215.5z" />
<glyph unicode=":" horiz-adv-x="608" d="M236 0v193h192v-193h-192zM236 616v193h192v-193h-192z" />
<glyph unicode=";" horiz-adv-x="608" d="M236 616v193h192v-193h-192zM240 180h180v-313l-180 -162v475z" />
<glyph unicode="&#x3c;" horiz-adv-x="2103" d="M113 551l817 817h192l-747 -745h1616v-144h-1616l747 -745h-192z" />
<glyph unicode="=" d="M106 309v135h857v-135h-857zM106 655v138h857v-138h-857z" />
<glyph unicode="&#x3e;" horiz-adv-x="2103" d="M113 479v144h1616l-748 745h193l817 -817l-817 -817h-193l748 745h-1616z" />
<glyph unicode="?" horiz-adv-x="1017" d="M156 1096q0 160 109 265q113 109 276 109q164 0 272 -104q111 -107 111 -263q0 -77 -26 -135.5t-67 -117.5l-167 -242q-37 -60 -37 -119v-79h-148v82q0 101 64 192l166 240q29 43 48 81.5t19 92.5q0 104 -65.5 172.5t-169.5 68.5q-108 0 -175 -73q-63 -69 -63 -170h-147z M465 0v172h176v-172h-176z" />
<glyph unicode="@" horiz-adv-x="1460" d="M147 328v688q0 213 114 329t317 115h303q201 0 316.5 -115.5t115.5 -328.5v-1018l-142 2v113q-51 -66 -115.5 -96.5t-154.5 -30.5q-183 0 -283 125q-53 63 -71.5 150t-18.5 224t18.5 225.5t64.5 149.5q97 129 284 129q170 0 274 -129v160q0 82 -17 134t-61 97 q-82 84 -229 84h-266q-141 0 -223 -82q-47 -47 -64.5 -97t-17.5 -136v-690q0 -99 19 -136q28 -58 98 -112l-101 -100q-94 70 -127 139q-33 71 -33 207zM674 487q0 -174 34.5 -242.5t84 -100t129.5 -31.5q146 0 204 115q43 85 43 259q0 175 -34.5 243.5t-84 100t-128.5 31.5 q-147 0 -206 -116q-42 -84 -42 -259z" />
<glyph unicode="A" horiz-adv-x="1251" d="M25 0l536 1458h131l535 -1458h-166l-117 330h-637l-117 -330h-165zM354 465h545l-270 770z" />
<glyph unicode="B" horiz-adv-x="1368" d="M211 0v1458h549q195 0 310 -103q120 -107 120 -286q0 -117 -61.5 -201t-153.5 -118q104 -39 170.5 -127.5t66.5 -203t-31.5 -190t-88.5 -127.5q-115 -102 -314 -102h-567zM367 139h397q135 0 214 73t79 196t-79 194.5t-214 71.5h-397v-535zM367 813h381q198 0 264 140 q22 48 22 114q0 124 -83 191q-77 61 -203 61h-381v-506z" />
<glyph unicode="C" horiz-adv-x="1304" d="M156 729q0 270 15 349q28 147 112 231q161 161 383 161q195 0 332 -114t173 -320h-159q-29 135 -119 215t-227 80q-154 0 -252 -102q-67 -67 -86 -171q-17 -89 -17 -329t13.5 -312.5t34 -112.5t61.5 -82t107.5 -68.5t138.5 -26.5q137 0 229 80t121 215h155 q-36 -206 -173 -320t-332 -114q-220 0 -373 151q-94 94 -120 231q-17 89 -17 359z" />
<glyph unicode="D" horiz-adv-x="1378" d="M211 0v1458h500q235 0 368 -135q139 -139 143 -423q1 -79 1 -155q0 -230 -13 -318q-47 -303 -291 -393q-94 -34 -208 -34h-500zM367 139h317q184 0 287 107q91 96 95 360q1 71 1 139q0 186 -9 254q-19 143 -81 208q-110 112 -293 112h-317v-1180z" />
<glyph unicode="E" horiz-adv-x="1228" d="M211 0v1458h905v-139h-749v-514h639v-139h-639v-527h749v-139h-905z" />
<glyph unicode="F" horiz-adv-x="1187" d="M211 0v1458h905v-139h-749v-537h639v-139h-639v-643h-156z" />
<glyph unicode="G" horiz-adv-x="1331" d="M156 729q0 270 15 349q28 147 122 241q151 151 370 151h3q207 0 344 -122q131 -117 166 -314h-156q-31 139 -124 218t-230 79q-152 0 -252 -104q-67 -67 -86 -171q-17 -87 -17 -327t13.5 -312.5t34 -112.5t61.5 -82t107.5 -68.5t142.5 -26.5t148.5 31.5t120.5 89 t66.5 120t18.5 148.5v111h-358v137h514v-232q0 -127 -29 -216t-101 -166q-152 -162 -384 -162q-220 0 -373 151q-94 94 -120 231q-17 89 -17 359z" />
<glyph unicode="H" horiz-adv-x="1425" d="M211 0v1458h156v-653h692v653h155v-1458h-155v666h-692v-666h-156z" />
<glyph unicode="I" horiz-adv-x="577" d="M211 0v1458h156v-1458h-156z" />
<glyph unicode="J" horiz-adv-x="1026" d="M47 119l105 104q39 -41 89 -68.5t140 -27.5q143 0 221 87t78 249v995h156v-1016q0 -208 -128 -332q-126 -122 -327 -122q-203 0 -334 131z" />
<glyph unicode="K" horiz-adv-x="1331" d="M211 0v1458h156v-837l680 837h190l-459 -563l525 -895h-185l-444 776l-307 -368v-408h-156z" />
<glyph unicode="L" horiz-adv-x="1173" d="M211 0v1458h156v-1319h745v-139h-901z" />
<glyph unicode="M" horiz-adv-x="1671" d="M211 0v1458h156l475 -1034l463 1034h155v-1458h-155v1108l-400 -879h-133l-405 879v-1108h-156z" />
<glyph unicode="N" horiz-adv-x="1499" d="M211 0v1458h147l775 -1165v1165h155v-1458h-147l-774 1169v-1169h-156z" />
<glyph unicode="O" horiz-adv-x="1331" d="M156 729q0 270 15 349q28 147 122 241q151 151 370 151h3q221 0 372 -151q94 -94 120 -231q18 -94 18 -359t-15.5 -346.5t-43 -137t-90.5 -118t-157 -101t-204 -38.5q-221 0 -373 151q-94 94 -120 231q-17 89 -17 359zM311 729q0 -240 13.5 -311.5t34 -111.5t61.5 -82 t107.5 -69.5t138.5 -27.5q150 0 252 104q66 66 86 171q16 87 16 327t-13.5 311.5t-34 111.5t-61 82t-107.5 69.5t-138 27.5q-152 0 -252 -104q-67 -67 -86 -171q-17 -87 -17 -327z" />
<glyph unicode="P" horiz-adv-x="1290" d="M211 0v1458h543q204 0 326 -116q124 -118 124 -312q0 -198 -124 -313q-127 -117 -326 -117h-387v-600h-156zM367 739h372q137 0 223.5 73t86.5 218t-86 217t-224 72h-372v-580z" />
<glyph unicode="Q" horiz-adv-x="1329" d="M156 729q0 270 15 349q28 147 122 241q151 151 370 151h3q221 0 372 -151q94 -94 120 -231q18 -94 18 -278.5t-2.5 -265.5t-11.5 -146q-18 -128 -87 -216l160 -159l-94 -95l-162 162q-133 -102 -313 -102q-221 0 -373 151q-94 94 -120 231q-17 89 -17 359zM311 729 q0 -240 13.5 -311.5t34 -111.5t61.5 -82t107.5 -69.5t138.5 -27.5q115 0 206 70l-184 184l94 94l179 -178q37 61 46 136t11 141.5t2 168t-3 180t-13 133.5q-20 103 -76 161q-110 114 -262 114t-252 -104q-67 -67 -86 -171q-17 -87 -17 -327z" />
<glyph unicode="R" horiz-adv-x="1343" d="M211 0v1458h559q194 0 312 -108q120 -110 120 -283.5t-88 -275t-229 -129.5l346 -662h-182l-332 647h-350v-647h-156zM367 784h389q129 0 210 66t81 201t-81 201.5t-210 66.5h-389v-535z" />
<glyph unicode="S" horiz-adv-x="1204" d="M86 180l107 107q90 -90 182 -125t233.5 -35t233.5 70.5t92 199.5q0 121 -70 183q-35 31 -72.5 44t-117.5 25l-170 27q-174 29 -276.5 118.5t-102.5 264.5q0 189 125 299q128 112 342 112q139 0 239.5 -37.5t194.5 -121.5l-100 -101q-68 61 -146 93t-209.5 32 t-211.5 -73.5t-80 -190.5t65 -174q70 -58 197 -80l159 -24q186 -29 267 -103q123 -105 123 -292.5t-138 -298.5t-366 -111q-164 0 -281 45t-219 147z" />
<glyph unicode="T" horiz-adv-x="1122" d="M61 1319v139h1000v-139h-422v-1319h-156v1319h-422z" />
<glyph unicode="U" horiz-adv-x="1398" d="M190 481v977h156v-964q0 -257 206 -340q66 -27 146 -27q159 0 257 100t98 267v964h155v-977q0 -220 -144 -357q-144 -136 -366 -136q-224 0 -364 136q-144 140 -144 357z" />
<glyph unicode="V" horiz-adv-x="1118" d="M16 1458h164l379 -1179l379 1179h164l-479 -1458h-127z" />
<glyph unicode="W" horiz-adv-x="1748" d="M33 1458h166l284 -1175l322 1175h139l322 -1175l284 1175h166l-373 -1458h-145l-324 1167l-323 -1167h-145z" />
<glyph unicode="X" horiz-adv-x="1128" d="M31 0l446 748l-418 710h181l323 -575l324 575h180l-420 -710l451 -748h-180l-355 612l-356 -612h-176z" />
<glyph unicode="Y" horiz-adv-x="1052" d="M16 1458h168l344 -698l340 698h168l-430 -856v-602h-155v602z" />
<glyph unicode="Z" horiz-adv-x="1138" d="M117 0v147l729 1172h-701v139h877v-131l-735 -1188h735v-139h-905z" />
<glyph unicode="[" horiz-adv-x="641" d="M188 -152v1762h363v-131h-215v-1499h215v-132h-363z" />
<glyph unicode="\" horiz-adv-x="727" d="M0 1604h145l582 -1756h-145z" />
<glyph unicode="]" horiz-adv-x="641" d="M90 -25h221v1508h-221v127h363v-1762h-363v127z" />
<glyph unicode="^" horiz-adv-x="1099" d="M147 846l336 624h135l334 -624h-151l-250 467l-252 -467h-152z" />
<glyph unicode="_" horiz-adv-x="1099" d="M0 -233h1100v-105h-1100v105z" />
<glyph unicode="`" horiz-adv-x="1024" d="M256 1530h176l180 -313h-135z" />
<glyph unicode="a" horiz-adv-x="1077" d="M104 287q0 131 89.5 209.5t259.5 78.5h303v97q0 111 -59.5 166t-178 55t-174 -25.5t-100.5 -89.5l-101 92q68 88 151 119t206 31q403 0 403 -336v-684h-147v96q-61 -61 -126 -84.5t-167 -23.5q-195 0 -283 92q-76 76 -76 207zM248 287q0 -88 55 -130t148.5 -42t149.5 10 t105.5 58t49.5 173v109h-283q-225 0 -225 -178z" />
<glyph unicode="b" horiz-adv-x="1116" d="M184 0v1458h148v-567q61 78 130.5 103.5t150.5 25.5q227 0 311 -176q45 -93 53 -187t8 -153q0 -305 -123 -428q-88 -88 -246 -88q-84 0 -153.5 26.5t-130.5 106.5v-121h-148zM332 504q0 -177 44 -266q59 -119 210 -119q214 0 244 241q8 70 8 144q0 179 -44 266 q-59 119 -208 119q-214 0 -245 -241q-9 -70 -9 -144z" />
<glyph unicode="c" horiz-adv-x="1003" d="M129 504q0 248 128 386q121 130 318 130q104 0 179 -33t153 -117l-100 -94q-57 63 -108.5 88t-124.5 25q-149 0 -232 -115q-66 -92 -66 -270q0 -277 166 -356q60 -29 132.5 -29t124 25.5t108.5 88.5l100 -96q-78 -84 -152.5 -116.5t-175 -32.5t-181.5 31.5t-141 96.5 q-128 137 -128 388z" />
<glyph unicode="d" horiz-adv-x="1116" d="M131 504q0 305 123 428q88 88 246 88q84 0 153.5 -25.5t130.5 -103.5v567h148v-1458h-146v121q-61 -80 -131.5 -106.5t-151.5 -26.5q-227 0 -311 176q-45 93 -53 186.5t-8 153.5zM279 504q0 -177 45 -266q58 -119 208 -119q151 0 210 119q42 85 42 266t-34.5 250t-85 102 t-132.5 33q-213 0 -244 -241q-9 -70 -9 -144z" />
<glyph unicode="e" horiz-adv-x="1085" d="M129 498.5q0 251.5 110.5 386.5t305.5 135t303 -131t108 -357v-67h-680q0 -166 76 -257t221 -91q88 0 146.5 27.5t118.5 86.5l100 -88q-80 -80 -141 -108q-104 -47 -216 -47t-193 30.5t-138 93.5q-121 135 -121 386.5zM276 575h533q-6 94 -14.5 121t-16.5 47 q-29 70 -92 111t-143 41t-143.5 -41t-86 -96.5t-28.5 -88t-9 -94.5z" />
<glyph unicode="f" horiz-adv-x="643" d="M88 889v112h129v191q0 184 143 248q48 22 113 22h107v-127h-80q-135 0 -135 -147v-187h215v-112h-215v-889h-148v889h-129z" />
<glyph unicode="g" horiz-adv-x="1112" d="M131 512q0 123 23.5 233.5t99.5 186.5q88 88 246 88q84 0 152.5 -25.5t129.5 -105.5v119h146v-1039q0 -190 -111 -309q-114 -123 -309 -123q-114 0 -171 23q-96 41 -171 112l96 95q87 -81 166 -95q33 -6 91.5 -6t110.5 24.5t86 65.5q64 77 64 219v158 q-61 -78 -130.5 -104.5t-149.5 -26.5q-156 0 -239 83t-106.5 193.5t-23.5 233.5zM279 512q0 -176 34.5 -243.5t85 -100.5t131.5 -33q147 0 208 118q42 83 42 258q0 71 -8 139.5t-34 120.5q-61 118 -208 118q-148 0 -208 -118q-43 -83 -43 -259z" />
<glyph unicode="h" horiz-adv-x="1150" d="M184 0v1458h148v-561q109 123 281.5 123t268 -100.5t95.5 -272.5v-647h-148v623q0 133 -65.5 199.5t-179.5 66.5q-115 0 -183.5 -67.5t-68.5 -198.5v-623h-148z" />
<glyph unicode="i" horiz-adv-x="518" d="M176 1294v166h166v-166h-166zM184 0v1008h148v-1008h-148z" />
<glyph unicode="j" horiz-adv-x="518" d="M-31 -324h80q78 0 106.5 37t28.5 111v1177h148v-1183q0 -120 -62 -193q-67 -78 -194 -78h-107v129zM176 1294v166h166v-166h-166z" />
<glyph unicode="k" horiz-adv-x="1097" d="M184 0v1458h148v-975l454 525h185l-342 -385l401 -623h-182l-320 516l-196 -225v-291h-148z" />
<glyph unicode="l" horiz-adv-x="608" d="M180 268v1190h148v-1184q0 -74 28.5 -110.5t106.5 -36.5h80v-127h-107q-133 0 -194.5 77t-61.5 191z" />
<glyph unicode="m" horiz-adv-x="1800" d="M184 0v1008h148v-111q107 123 284 123q216 0 310 -168q119 168 331 168q161 0 265.5 -99t103.5 -276v-645h-147v621q0 135 -66.5 201.5t-179.5 66.5t-183.5 -65.5t-70.5 -186.5v-637h-148v621q0 135 -66.5 201.5t-180.5 66.5q-115 0 -183.5 -67.5t-68.5 -200.5v-621h-148 z" />
<glyph unicode="n" horiz-adv-x="1150" d="M184 0v1008h148v-111q107 123 276.5 123t268.5 -98t100 -277v-645h-148v621q0 135 -66.5 201.5t-180.5 66.5q-115 0 -182.5 -67.5t-67.5 -200.5v-621h-148z" />
<glyph unicode="o" horiz-adv-x="1085" d="M131 504q0 133 19 201q35 131 96 192q123 123 297 123q173 0 288 -115q76 -78 99.5 -181t23.5 -220t-23.5 -220.5t-88.5 -169.5q-124 -126 -299 -126t-289 114q-123 123 -123 402zM279 504q0 -236 81 -311q74 -74 184 -74t183 74q71 71 78 225q2 43 2 86q0 164 -37 246 q-16 36 -43 65q-74 74 -183.5 74t-183.5 -74q-72 -72 -79 -225q-2 -43 -2 -86z" />
<glyph unicode="p" horiz-adv-x="1116" d="M184 -451v1459h148v-119q61 80 130.5 105.5t150.5 25.5q227 0 311 -176q45 -93 53 -187t8 -153q0 -305 -123 -428q-88 -88 -246 -88q-84 0 -153.5 26.5t-130.5 104.5v-570h-148zM332 504q0 -177 44 -266q59 -119 210 -119q214 0 244 241q8 70 8 144q0 179 -44 266 q-59 119 -208 119q-214 0 -245 -241q-9 -70 -9 -144z" />
<glyph unicode="q" horiz-adv-x="1116" d="M131 504q0 305 123 428q88 88 246 88q84 0 154.5 -25.5t131.5 -105.5v119h146v-1459h-148v570q-61 -78 -130.5 -104.5t-150.5 -26.5q-227 0 -311 176q-45 93 -53 186.5t-8 153.5zM279 504q0 -177 45 -266q58 -119 208 -119q151 0 210 119q42 85 42 266t-34.5 250t-85 102 t-132.5 33q-213 0 -244 -241q-9 -70 -9 -144z" />
<glyph unicode="r" horiz-adv-x="862" d="M184 0v1008h148v-123q41 63 117.5 99t156.5 36t138.5 -20.5t111.5 -73.5l-108 -111q-41 41 -78 57.5t-94.5 16.5t-102.5 -20.5t-75 -57.5q-66 -79 -66 -193v-618h-148z" />
<glyph unicode="s" horiz-adv-x="1015" d="M88 133l98 98q109 -116 314 -116q125 0 196.5 44t71.5 122t-40 114.5t-128 44.5l-166 15q-301 25 -301 270q0 136 105 216q102 79 266 79q232 0 362 -109l-96 -96q-103 80 -268 80q-111 0 -168.5 -44t-57.5 -116t40 -108.5t137 -44.5l161 -15q147 -13 216 -71 q81 -69 81 -201q0 -143 -113 -226q-111 -81 -296 -81q-129 0 -229.5 32.5t-184.5 112.5z" />
<glyph unicode="t" horiz-adv-x="679" d="M82 889v112h127v316h147v-316h215v-112h-215v-615q0 -147 138 -147h77v-127h-104q-186 0 -241 166q-17 49 -17 104v619h-127z" />
<glyph unicode="u" horiz-adv-x="1150" d="M174 365v643h148v-621q0 -135 65.5 -201.5t179.5 -66.5q115 0 183.5 67.5t68.5 200.5v621h148v-1008h-146v113q-109 -125 -279.5 -125t-265.5 94q-102 102 -102 283z" />
<glyph unicode="v" horiz-adv-x="915" d="M23 1008h159l275 -809l276 809h160l-371 -1008h-131z" />
<glyph unicode="w" horiz-adv-x="1482" d="M23 1008h159l232 -809l264 809h127l266 -809l229 809h160l-317 -1008h-137l-265 782l-262 -782h-137z" />
<glyph unicode="x" horiz-adv-x="978" d="M68 0l342 514l-328 494h178l232 -373l227 373h178l-328 -494l342 -514h-178l-241 391l-246 -391h-178z" />
<glyph unicode="y" horiz-adv-x="915" d="M23 1008h159l277 -809l274 809h160l-459 -1252q-68 -188 -268 -188h-64v131h45q76 0 109 27.5t57 97.5l72 196z" />
<glyph unicode="z" horiz-adv-x="940" d="M102 0v127l562 750h-531v131h701v-125l-564 -752h564v-131h-732z" />
<glyph unicode="{" horiz-adv-x="724" d="M98 664v131h54q54 0 92 36q37 37 37 123v392q0 80 13 123.5t47 77.5q63 63 208 63h76v-131h-47q-94 0 -121 -27q-29 -29 -29 -133v-385q0 -88 -35 -132t-94 -73q59 -29 94 -73t35 -132v-385q0 -104 29 -133q26 -26 121 -26h47v-132h-76q-213 0 -255 141q-13 44 -13 124 v391q0 116 -77 150q-24 10 -52 10h-54z" />
<glyph unicode="|" horiz-adv-x="667" d="M260 -152v1762h148v-1762h-148z" />
<glyph unicode="}" horiz-adv-x="724" d="M98 -20h49q93 0 119 26q31 31 31 133v385q0 88 35 132t94 73q-59 29 -94 73t-35 132v385q0 104 -31 133q-27 27 -119 27h-49v131h78q213 0 255 -141q13 -44 13 -123v-392q0 -117 77 -149q24 -10 52 -10h52v-131h-52q-53 0 -91 -37t-38 -123v-391q0 -80 -13 -124t-47 -78 q-63 -63 -208 -63h-78v132z" />
<glyph unicode="~" horiz-adv-x="1103" d="M100 543q116 116 200 133q30 6 74 6q64 0 156.5 -42t130 -56.5t68 -14.5t49.5 3t38 14q43 23 95 76l93 -93q-84 -84 -127 -106q-62 -33 -126.5 -33t-116.5 18.5t-103.5 42t-89.5 38t-70 14.5t-49 -3t-36 -14q-40 -21 -96 -75z" />
<glyph unicode="&#xa1;" horiz-adv-x="647" d="M203 836v172h176v-172h-176zM207 -451l20 1049h127l23 -1049h-170z" />
<glyph unicode="&#xa2;" horiz-adv-x="1019" d="M129 750q0 223 100.5 354t270.5 156v198h121v-194q92 -6 158.5 -40t138.5 -112l-101 -94q-51 57 -97 82.5t-108 29.5v-761q61 4 107.5 29.5t97.5 82.5l101 -94q-72 -78 -138.5 -111.5t-158.5 -39.5v-236h-121v240q-170 25 -270.5 155.5t-100.5 354.5zM276 750 q0 -176 65.5 -267.5t166.5 -109.5v753q-100 -18 -164 -106q-68 -95 -68 -270z" />
<glyph unicode="&#xa3;" horiz-adv-x="1122" d="M96 676v110h129v230q0 208 129 332q125 122 328 122t334 -131l-107 -104q-49 49 -81 65q-60 31 -146 31q-143 0 -221 -87t-78 -249v-209h299v-110h-299v-537h633v-139h-791v676h-129z" />
<glyph unicode="&#xa4;" horiz-adv-x="1351" d="M160 133l151 152q-90 121 -90 270t90 270l-151 150l94 94l152 -149q118 88 270 88q150 0 268 -88l154 149l94 -94l-152 -150q90 -121 90 -270t-90 -270l152 -152l-94 -94l-154 151q-121 -90 -268 -90q-146 0 -270 90l-152 -151zM356 555q0 -130 95 -225q94 -94 225 -94 t225 94q92 92 92 225t-92 225t-225 92t-225 -92q-95 -95 -95 -225z" />
<glyph unicode="&#xa5;" horiz-adv-x="1052" d="M16 1458h168l344 -698l342 698h166l-321 -637h205v-110h-261l-53 -109v-106h314v-113h-314v-383h-157v383h-316v113h316v106l-54 109h-262v110h205z" />
<glyph unicode="&#xa6;" horiz-adv-x="686" d="M260 -152v717h148v-717h-148zM260 893v717h148v-717h-148z" />
<glyph unicode="&#xa7;" horiz-adv-x="1140" d="M178 516q0 114 66 211q52 75 149 125q-88 41 -139 105.5t-51 158t27.5 155.5t76.5 106q104 93 264 93q159 0 263 -86q102 -85 110 -235h-147q-15 190 -226 190q-104 0 -162.5 -51t-58.5 -142t47 -137t125 -69l160 -45q135 -39 208 -137.5t73 -237.5q0 -115 -67 -211 q-55 -78 -146 -125q88 -33 143 -107.5t55 -171t-29.5 -162t-80.5 -111.5q-104 -95 -267 -95q-250 0 -350 187q-33 61 -37 143h150q10 -96 71.5 -145.5t165.5 -49.5t166 55.5t62 143.5q0 175 -181 225l-159 45q-135 39 -208 136.5t-73 238.5zM328 518q0 -111 67 -188 q68 -74 176 -74q109 0 175.5 73.5t66.5 184.5q0 126 -69.5 196.5t-175.5 70t-173 -73.5q-67 -75 -67 -189z" />
<glyph unicode="&#xa8;" horiz-adv-x="1024" d="M221 1233v182h148v-182h-148zM655 1233v182h148v-182h-148z" />
<glyph unicode="&#xa9;" horiz-adv-x="1804" d="M160 729q0 154 58 289t158.5 235.5t236 158.5t288.5 58q154 0 289 -58t235.5 -158.5t158.5 -235.5t58 -289t-58 -289t-158.5 -235.5t-235.5 -158.5t-289 -58t-289 58t-235.5 158.5t-158.5 235.5t-58 289zM281 729q0 -261 181 -444q185 -187 439 -187q129 0 242.5 50.5 t197.5 136.5t133.5 200.5t49.5 243.5t-49.5 243.5t-133.5 201t-197.5 136.5t-242.5 50q-256 0 -439 -186q-181 -185 -181 -445zM547 729q0 288 207 386q67 32 155 32t147.5 -26.5t123.5 -82.5l-74 -73q-51 45 -94 62t-107 17t-112 -25.5t-77 -68.5q-54 -82 -54 -221 q0 -222 132 -289q48 -24 111 -24t106.5 16.5t94.5 61.5l74 -74q-59 -53 -121 -80t-150 -27t-155.5 32t-113.5 87q-93 111 -93 297z" />
<glyph unicode="&#xaa;" horiz-adv-x="919" d="M115 884q0 101 70.5 164.5t205.5 63.5h236v74q0 86 -44 129t-137.5 43t-137.5 -19.5t-81 -70.5l-84 75q55 72 122 97.5t165 25.5q318 0 318 -270v-543h-119v74q-47 -47 -98.5 -65.5t-132.5 -18.5q-148 0 -222 74q-61 66 -61 167zM236 883q0 -68 41.5 -100.5t113.5 -32.5 t116 8t82 44t38 136v82h-219q-172 0 -172 -137z" />
<glyph unicode="&#xab;" horiz-adv-x="1134" d="M82 549l430 430v-184l-246 -246l246 -248v-182zM545 549l430 430v-184l-248 -246l248 -248v-182z" />
<glyph unicode="&#xac;" d="M104 492v137h861v-418h-138v281h-723z" />
<glyph unicode="&#xad;" horiz-adv-x="872" d="M156 483v138h561v-138h-561z" />
<glyph unicode="&#xae;" horiz-adv-x="1804" d="M160 729q0 154 58 289t158.5 235.5t236 158.5t288.5 58q154 0 289 -58t235.5 -158.5t158.5 -235.5t58 -289t-58 -289t-158.5 -235.5t-235.5 -158.5t-289 -58t-289 58t-235.5 158.5t-158.5 235.5t-58 289zM279 729q0 -260 182 -446q84 -86 197.5 -136.5t242.5 -50.5 t242.5 50.5t198.5 136.5q184 186 184 446q0 131 -49.5 246t-134.5 201t-198.5 136t-242.5 50t-242.5 -50t-197.5 -136q-182 -186 -182 -447zM659 324v813h277q106 0 180 -70q76 -72 76 -168t-49 -151.5t-125 -77.5l194 -346h-131l-186 331h-123v-331h-113zM772 752h152 q68 0 110.5 40t42.5 101t-43 102t-110 41h-152v-284z" />
<glyph unicode="&#xaf;" horiz-adv-x="1024" d="M203 1257v117h618v-117h-618z" />
<glyph unicode="&#xb0;" horiz-adv-x="948" d="M137 1141q0 141 99 237q103 99 239 99q139 0 238 -99q98 -98 98 -237q0 -140 -98 -238t-238 -98q-137 0 -239 98q-99 96 -99 238zM262 1140q0 -46 16.5 -85t45.5 -69q58 -62 151 -62q139 0 195 131q16 39 16 85t-16.5 86t-45.5 70q-60 62 -151 62q-140 0 -195 -132 q-16 -40 -16 -86z" />
<glyph unicode="&#xb1;" d="M106 0v137h857v-137h-857zM106 592v137h361v358h137v-358h359v-137h-359v-363h-137v363h-361z" />
<glyph unicode="&#xb2;" horiz-adv-x="700" d="M98 584v106l338 414q47 58 47 119t-34.5 99t-93 38t-98.5 -31t-40 -106h-119q0 111 71 177t181 66q111 0 181.5 -65.5t70.5 -177.5q0 -57 -19.5 -98.5t-60.5 -90.5l-282 -344h362v-106h-504z" />
<glyph unicode="&#xb3;" horiz-adv-x="729" d="M98 817h119q4 -72 48 -104.5t104.5 -32.5t102.5 39t42 109.5t-38 110.5t-116 40h-18v102h18q140 0 140 140q0 70 -40 104.5t-97 34.5t-94.5 -35t-41.5 -94h-116q6 111 77.5 173t179.5 62t178 -66.5t70 -176.5q0 -137 -110 -189q125 -53 125 -205q0 -123 -77 -191 q-73 -65 -187 -65q-178 0 -245 135q-22 46 -24 109z" />
<glyph unicode="&#xb4;" horiz-adv-x="1024" d="M412 1217l180 313h176l-221 -313h-135z" />
<glyph unicode="&#xb5;" horiz-adv-x="1148" d="M170 -451v1459h147v-621q0 -135 67 -201.5t181 -66.5q115 0 183.5 67.5t68.5 200.5v621h148v-1008h-148v113q-109 -125 -282 -125q-135 0 -218 75v-514h-147z" />
<glyph unicode="&#xb6;" horiz-adv-x="1234" d="M86 1061q0 172 116 281q126 116 328 116h494v-1909h-147v1770h-240v-1770h-148v1119q-180 0 -293 120q-110 116 -110 273z" />
<glyph unicode="&#xb7;" horiz-adv-x="552" d="M180 457v192h193v-192h-193z" />
<glyph unicode="&#xb8;" horiz-adv-x="1024" d="M358 -442l146 305h137l-121 -305h-162z" />
<glyph unicode="&#xb9;" horiz-adv-x="534" d="M88 1178v135l170 145h117v-874h-117v743z" />
<glyph unicode="&#xba;" horiz-adv-x="931" d="M137 1054q0 93 18.5 175t70.5 134q102 103 239 103t229 -92q61 -63 80 -145t19 -175t-18.5 -174t-70.5 -134q-99 -101 -239 -101q-141 0 -229 90q-61 63 -80 144.5t-19 174.5zM260 1055q0 -66 9.5 -132.5t45.5 -102.5q66 -66 150 -66q86 0 136 51t60.5 117.5t10.5 132.5 t-10.5 133t-60.5 117t-136 51q-86 0 -136 -50.5t-59.5 -118t-9.5 -132.5z" />
<glyph unicode="&#xbb;" horiz-adv-x="1134" d="M160 119v182l248 248l-248 246v184l430 -430zM623 119v182l245 248l-245 246v184l430 -430z" />
<glyph unicode="&#xbc;" horiz-adv-x="1591" d="M88 1178v135l170 145h117v-874h-117v743zM354 0l682 1458h123l-682 -1458h-123zM946 131v109l309 634h127l-307 -634h223v215h115v-215h96v-109h-96v-131h-115v131h-352z" />
<glyph unicode="&#xbd;" horiz-adv-x="1617" d="M88 1178v135l170 145h117v-874h-117v743zM330 0l682 1458h123l-682 -1458h-123zM1016 0v106l338 414q47 58 47 119t-35 99t-93 38q-138 0 -138 -137h-119q0 111 70.5 177.5t181.5 66.5t181.5 -65.5t70.5 -178.5q0 -57 -19.5 -98t-60.5 -90l-281 -345h361v-106h-504z" />
<glyph unicode="&#xbe;" horiz-adv-x="1683" d="M98 817h119q4 -72 48 -104.5t104.5 -32.5t102.5 39t42 109.5t-38 110.5t-116 40h-18v102h18q140 0 140 140q0 70 -40 104.5t-97 34.5t-94.5 -35t-41.5 -94h-116q6 111 77.5 173t179.5 62t178 -66.5t70 -176.5q0 -137 -110 -189q125 -53 125 -205q0 -123 -77 -191 q-73 -65 -187 -65q-178 0 -245 135q-22 46 -24 109zM461 0l684 1458h123l-684 -1458h-123zM1038 131v109l310 634h127l-310 -634h226v215h114v-215h97v-109h-97v-131h-114v131h-353z" />
<glyph unicode="&#xbf;" horiz-adv-x="1017" d="M94 -88q0 72 26.5 129t67.5 117l168 241q37 60 37 119v82h148v-84q0 -98 -66 -192l-166 -238q-29 -43 -48 -82t-19 -92q0 -104 66.5 -173t170.5 -69q107 0 173 73q63 71 63 169h147q0 -158 -108.5 -266.5t-274.5 -108.5q-164 0 -273 105q-112 109 -112 270zM379 836v172 h174v-172h-174z" />
<glyph unicode="&#xc0;" horiz-adv-x="1251" d="M25 0l536 1458h131l535 -1458h-166l-117 330h-637l-117 -330h-165zM354 465h545l-270 770zM362 1913h176l180 -313h-135z" />
<glyph unicode="&#xc1;" horiz-adv-x="1251" d="M25 0l536 1458h131l535 -1458h-166l-117 330h-637l-117 -330h-165zM354 465h545l-270 770zM518 1600l180 313h176l-221 -313h-135z" />
<glyph unicode="&#xc2;" horiz-adv-x="1251" d="M25 0l536 1458h131l535 -1458h-166l-117 330h-637l-117 -330h-165zM292 1600l256 313h140l256 -313h-142l-184 213l-184 -213h-142zM354 465h545l-270 770z" />
<glyph unicode="&#xc3;" horiz-adv-x="1251" d="M25 0l536 1458h131l535 -1458h-166l-117 330h-637l-117 -330h-165zM288 1726q93 93 156 102q20 3 52 3q45 0 105 -34.5t85.5 -45t52.5 -10.5t53.5 10t71.5 55l76 -73q-70 -70 -115 -87.5t-84 -17.5q-64 0 -141 47q-29 16 -56.5 29.5t-55.5 13.5t-53.5 -10t-70.5 -55z M354 465h545l-270 770z" />
<glyph unicode="&#xc4;" horiz-adv-x="1251" d="M25 0l536 1458h131l535 -1458h-166l-117 330h-637l-117 -330h-165zM327 1616v182h148v-182h-148zM354 465h545l-270 770zM761 1616v182h148v-182h-148z" />
<glyph unicode="&#xc5;" horiz-adv-x="1251" d="M25 0l536 1458h131l535 -1458h-166l-117 330h-637l-117 -330h-165zM354 465h545l-270 770zM376 1776q0 98 72 170t170 72q100 0 170 -70q72 -72 72 -171q0 -50 -19.5 -95t-52.5 -78q-72 -72 -170 -72t-170 72t-72 172zM477 1776q0 -59 41 -100t100 -41t100 41t41 100 t-41 99t-100 40t-100 -40t-41 -99z" />
<glyph unicode="&#xc6;" horiz-adv-x="1888" d="M16 0l770 1458h990v-139h-750v-518h639v-139h-639v-523h750v-139h-904v346h-505l-181 -346h-170zM434 481h438v838z" />
<glyph unicode="&#xc7;" horiz-adv-x="1304" d="M156 729q0 270 15 349q28 147 112 231q161 161 383 161q195 0 332 -114t173 -320h-159q-29 135 -119 215t-227 80q-154 0 -252 -102q-67 -67 -86 -171q-17 -89 -17 -329t13.5 -312.5t34 -112.5t61.5 -82t107.5 -68.5t138.5 -26.5q137 0 229 80t121 215h155 q-36 -206 -173 -320t-332 -114q-220 0 -373 151q-94 94 -120 231q-17 89 -17 359zM475 -442l146 305h137l-121 -305h-162z" />
<glyph unicode="&#xc8;" horiz-adv-x="1228" d="M211 0v1458h905v-139h-749v-514h639v-139h-639v-527h749v-139h-905zM385 1913h176l180 -313h-135z" />
<glyph unicode="&#xc9;" horiz-adv-x="1228" d="M211 0v1458h905v-139h-749v-514h639v-139h-639v-527h749v-139h-905zM541 1600l180 313h176l-221 -313h-135z" />
<glyph unicode="&#xca;" horiz-adv-x="1228" d="M211 0v1458h905v-139h-749v-514h639v-139h-639v-527h749v-139h-905zM315 1600l256 313h140l256 -313h-142l-184 213l-184 -213h-142z" />
<glyph unicode="&#xcb;" horiz-adv-x="1228" d="M211 0v1458h905v-139h-749v-514h639v-139h-639v-527h749v-139h-905zM350 1616v182h148v-182h-148zM784 1616v182h148v-182h-148z" />
<glyph unicode="&#xcc;" horiz-adv-x="577" d="M66 1913h176l180 -313h-135zM211 0v1458h156v-1458h-156z" />
<glyph unicode="&#xcd;" horiz-adv-x="577" d="M164 1600l180 313h176l-221 -313h-135zM211 0v1458h156v-1458h-156z" />
<glyph unicode="&#xce;" horiz-adv-x="577" d="M-39 1600l256 313h140l256 -313h-142l-184 213l-184 -213h-142zM211 0v1458h156v-1458h-156z" />
<glyph unicode="&#xcf;" horiz-adv-x="577" d="M-2 1616v182h148v-182h-148zM211 0v1458h156v-1458h-156zM432 1616v182h148v-182h-148z" />
<glyph unicode="&#xd0;" horiz-adv-x="1406" d="M80 676v121h160v661h501q330 0 469 -309q35 -77 38 -189t3 -234t-3 -202t-12 -135q-14 -88 -77.5 -177t-170.5 -150.5t-259 -61.5h-489v676h-160zM397 137h316q217 0 319 152q42 60 51 125t11 133t2 172t-2 175t-10 121q-13 92 -67 166q-103 140 -304 140h-316v-524h330 v-121h-330v-539z" />
<glyph unicode="&#xd1;" horiz-adv-x="1499" d="M211 0v1458h147l775 -1165v1165h155v-1458h-147l-774 1169v-1169h-156zM420 1726q93 93 156 102q20 3 52 3q45 0 105 -34.5t85.5 -45t52.5 -10.5t53.5 10t71.5 55l76 -73q-70 -70 -115 -87.5t-84 -17.5q-64 0 -141 47q-29 16 -56.5 29.5t-55.5 13.5t-53.5 -10t-70.5 -55z " />
<glyph unicode="&#xd2;" horiz-adv-x="1331" d="M156 729q0 270 15 349q28 147 122 241q152 152 373 151q221 0 372 -151q94 -94 120 -231q18 -94 18 -359t-15.5 -346.5t-43 -137t-90.5 -118t-157 -101t-204 -38.5q-221 0 -373 151q-94 94 -120 231q-17 89 -17 359zM311 729q0 -240 13.5 -311.5t34 -111.5t61.5 -82 t107.5 -69.5t138.5 -27.5q150 0 252 104q66 66 86 171q16 87 16 327t-13.5 311.5t-34 111.5t-61 82t-107.5 69.5t-138 27.5q-152 0 -252 -104q-67 -67 -86 -171q-17 -87 -17 -327zM410 1913h176l180 -313h-135z" />
<glyph unicode="&#xd3;" horiz-adv-x="1331" d="M156 729q0 270 15 349q28 147 122 241q152 152 373 151q221 0 372 -151q94 -94 120 -231q18 -94 18 -359t-15.5 -346.5t-43 -137t-90.5 -118t-157 -101t-204 -38.5q-221 0 -373 151q-94 94 -120 231q-17 89 -17 359zM311 729q0 -240 13.5 -311.5t34 -111.5t61.5 -82 t107.5 -69.5t138.5 -27.5q150 0 252 104q66 66 86 171q16 87 16 327t-13.5 311.5t-34 111.5t-61 82t-107.5 69.5t-138 27.5q-152 0 -252 -104q-67 -67 -86 -171q-17 -87 -17 -327zM566 1600l180 313h176l-221 -313h-135z" />
<glyph unicode="&#xd4;" horiz-adv-x="1331" d="M156 729q0 270 15 349q28 147 122 241q152 152 373 151q221 0 372 -151q94 -94 120 -231q18 -94 18 -359t-15.5 -346.5t-43 -137t-90.5 -118t-157 -101t-204 -38.5q-221 0 -373 151q-94 94 -120 231q-17 89 -17 359zM311 729q0 -240 13.5 -311.5t34 -111.5t61.5 -82 t107.5 -69.5t138.5 -27.5q150 0 252 104q66 66 86 171q16 87 16 327t-13.5 311.5t-34 111.5t-61 82t-107.5 69.5t-138 27.5q-152 0 -252 -104q-67 -67 -86 -171q-17 -87 -17 -327zM340 1600l256 313h140l256 -313h-142l-184 213l-184 -213h-142z" />
<glyph unicode="&#xd5;" horiz-adv-x="1331" d="M156 729q0 270 15 349q28 147 122 241q152 152 373 151q221 0 372 -151q94 -94 120 -231q18 -94 18 -359t-15.5 -346.5t-43 -137t-90.5 -118t-157 -101t-204 -38.5q-221 0 -373 151q-94 94 -120 231q-17 89 -17 359zM311 729q0 -240 13.5 -311.5t34 -111.5t61.5 -82 t107.5 -69.5t138.5 -27.5q150 0 252 104q66 66 86 171q16 87 16 327t-13.5 311.5t-34 111.5t-61 82t-107.5 69.5t-138 27.5q-152 0 -252 -104q-67 -67 -86 -171q-17 -87 -17 -327zM336 1726q93 93 156 102q20 3 52 3q45 0 105 -34.5t85.5 -45t52.5 -10.5t53.5 10t71.5 55 l76 -73q-70 -70 -115 -87.5t-84 -17.5q-64 0 -141 47q-29 16 -56.5 29.5t-55.5 13.5t-53.5 -10t-70.5 -55z" />
<glyph unicode="&#xd6;" horiz-adv-x="1331" d="M156 729q0 270 15 349q28 147 122 241q152 152 373 151q221 0 372 -151q94 -94 120 -231q18 -94 18 -359t-15.5 -346.5t-43 -137t-90.5 -118t-157 -101t-204 -38.5q-221 0 -373 151q-94 94 -120 231q-17 89 -17 359zM311 729q0 -240 13.5 -311.5t34 -111.5t61.5 -82 t107.5 -69.5t138.5 -27.5q150 0 252 104q66 66 86 171q16 87 16 327t-13.5 311.5t-34 111.5t-61 82t-107.5 69.5t-138 27.5q-152 0 -252 -104q-67 -67 -86 -171q-17 -87 -17 -327zM375 1616v182h148v-182h-148zM809 1616v182h148v-182h-148z" />
<glyph unicode="&#xd7;" d="M133 244l309 309l-309 309l92 92l310 -311l309 311l92 -92l-311 -309l311 -309l-92 -92l-309 309l-310 -309z" />
<glyph unicode="&#xd8;" horiz-adv-x="1335" d="M156 729q0 270 15 349q28 147 122 241q152 152 373 151q143 0 256 -63l69 141h133l-102 -213l37.5 -37.5t57.5 -85t41 -124.5q18 -94 18 -359t-15.5 -346.5t-43 -137t-90.5 -118t-157 -101t-220.5 -38.5t-241.5 65l-68 -143h-133l102 213l-16 16q-94 94 -120 231 q-17 89 -17 359zM311 799q0 -170 2 -242t11 -126q16 -107 59 -163l479 1004q-87 59 -178 59q-170 0 -270 -104q-67 -67 -86 -171q-17 -87 -17 -257zM469 186q87 -59 178 -59q169 0 271 104q63 63 84 171q16 87 16 257t-2 242t-10 126q-14 105 -58 163z" />
<glyph unicode="&#xd9;" horiz-adv-x="1396" d="M190 481v977h156v-964q0 -257 206 -340q66 -27 146 -27q159 0 257 100t98 267v964h155v-977q0 -220 -144 -357q-144 -136 -366 -136q-224 0 -364 136q-144 140 -144 357zM442 1913h176l180 -313h-135z" />
<glyph unicode="&#xda;" horiz-adv-x="1396" d="M190 481v977h156v-964q0 -257 206 -340q66 -27 146 -27q159 0 257 100t98 267v964h155v-977q0 -220 -144 -357q-144 -136 -366 -136q-224 0 -364 136q-144 140 -144 357zM598 1600l180 313h176l-221 -313h-135z" />
<glyph unicode="&#xdb;" horiz-adv-x="1396" d="M190 481v977h156v-964q0 -257 206 -340q66 -27 146 -27q159 0 257 100t98 267v964h155v-977q0 -220 -144 -357q-144 -136 -366 -136q-224 0 -364 136q-144 140 -144 357zM372 1600l256 313h140l256 -313h-142l-184 213l-184 -213h-142z" />
<glyph unicode="&#xdc;" horiz-adv-x="1396" d="M190 481v977h156v-964q0 -257 206 -340q66 -27 146 -27q159 0 257 100t98 267v964h155v-977q0 -220 -144 -357q-144 -136 -366 -136q-224 0 -364 136q-144 140 -144 357zM407 1616v182h148v-182h-148zM841 1616v182h148v-182h-148z" />
<glyph unicode="&#xdd;" horiz-adv-x="1054" d="M16 1458h168l344 -698l340 698h168l-430 -856v-602h-155v602zM426 1600l180 313h176l-221 -313h-135z" />
<glyph unicode="&#xde;" horiz-adv-x="1314" d="M211 0v1458h156v-293h387q201 0 326 -117q124 -116 124 -313q0 -195 -124 -312q-124 -116 -326 -116h-387v-307h-156zM367 446h372q137 0 223.5 72t86.5 217t-86 217t-224 72h-372v-578z" />
<glyph unicode="&#xdf;" horiz-adv-x="1138" d="M184 0v1073q0 193 111 296.5t301 103.5q172 0 278 -82q117 -89 117 -253t-129 -249q106 -58 123 -160q6 -37 6 -86v-354q0 -141 -80 -215q-78 -74 -211 -74h-110v127h82q45 0 69.5 9t51.5 32q51 41 51 137v346q0 84 -43 127t-121 43h-90v123h74q80 0 130 50t50 136 q0 90 -62.5 151.5t-196.5 61.5t-192.5 -76.5t-58.5 -199.5v-1067h-150z" />
<glyph unicode="&#xe0;" horiz-adv-x="1077" d="M104 287q0 131 89.5 209.5t259.5 78.5h303v97q0 111 -59.5 166t-178 55t-174 -25.5t-100.5 -89.5l-101 92q68 88 151 119t206 31q403 0 403 -336v-684h-147v96q-61 -61 -126 -84.5t-167 -23.5q-195 0 -283 92q-76 76 -76 207zM248 287q0 -88 55 -130t148.5 -42t149.5 10 t105.5 58t49.5 173v109h-283q-225 0 -225 -178zM260 1530h176l180 -313h-135z" />
<glyph unicode="&#xe1;" horiz-adv-x="1077" d="M104 287q0 131 89.5 209.5t259.5 78.5h303v97q0 111 -59.5 166t-178 55t-174 -25.5t-100.5 -89.5l-101 92q68 88 151 119t206 31q403 0 403 -336v-684h-147v96q-61 -61 -126 -84.5t-167 -23.5q-195 0 -283 92q-76 76 -76 207zM248 287q0 -88 55 -130t148.5 -42t149.5 10 t105.5 58t49.5 173v109h-283q-225 0 -225 -178zM412 1217l180 313h176l-221 -313h-135z" />
<glyph unicode="&#xe2;" horiz-adv-x="1077" d="M104 287q0 131 89.5 209.5t259.5 78.5h303v97q0 111 -59.5 166t-178 55t-174 -25.5t-100.5 -89.5l-101 92q68 88 151 119t206 31q403 0 403 -336v-684h-147v96q-61 -61 -126 -84.5t-167 -23.5q-195 0 -283 92q-76 76 -76 207zM190 1217l256 313h140l256 -313h-142 l-184 213l-184 -213h-142zM248 287q0 -88 55 -130t148.5 -42t149.5 10t105.5 58t49.5 173v109h-283q-225 0 -225 -178z" />
<glyph unicode="&#xe3;" horiz-adv-x="1077" d="M104 287q0 131 89.5 209.5t259.5 78.5h303v97q0 111 -59.5 166t-178 55t-174 -25.5t-100.5 -89.5l-101 92q68 88 151 119t206 31q403 0 403 -336v-684h-147v96q-61 -61 -126 -84.5t-167 -23.5q-195 0 -283 92q-76 76 -76 207zM186 1343q93 93 156 102q20 3 52 3 q45 0 105 -34.5t85.5 -45t52.5 -10.5t53.5 10t71.5 55l76 -73q-70 -70 -115 -87.5t-84 -17.5q-64 0 -141 47q-29 16 -56.5 29.5t-55.5 13.5t-53.5 -10t-70.5 -55zM248 287q0 -88 55 -130t148.5 -42t149.5 10t105.5 58t49.5 173v109h-283q-225 0 -225 -178z" />
<glyph unicode="&#xe4;" horiz-adv-x="1077" d="M104 287q0 131 89.5 209.5t259.5 78.5h303v97q0 111 -59.5 166t-178 55t-174 -25.5t-100.5 -89.5l-101 92q68 88 151 119t206 31q403 0 403 -336v-684h-147v96q-61 -61 -126 -84.5t-167 -23.5q-195 0 -283 92q-76 76 -76 207zM225 1233v182h148v-182h-148zM248 287 q0 -88 55 -130t148.5 -42t149.5 10t105.5 58t49.5 173v109h-283q-225 0 -225 -178zM659 1233v182h148v-182h-148z" />
<glyph unicode="&#xe5;" horiz-adv-x="1077" d="M104 287q0 131 89.5 209.5t259.5 78.5h303v97q0 111 -59.5 166t-178 55t-174 -25.5t-100.5 -89.5l-101 92q68 88 151 119t206 31q403 0 403 -336v-684h-147v96q-61 -61 -126 -84.5t-167 -23.5q-195 0 -283 92q-76 76 -76 207zM248 287q0 -88 55 -130t148.5 -42t149.5 10 t105.5 58t49.5 173v109h-283q-225 0 -225 -178zM274 1407q0 98 72 170t170 72q100 0 170 -70q72 -72 72 -171q0 -50 -19.5 -95t-52.5 -78q-72 -72 -170 -72t-170 72t-72 172zM375 1407q0 -59 41 -100t100 -41t100 41t41 100t-41 99t-100 40t-100 -40t-41 -99z" />
<glyph unicode="&#xe6;" horiz-adv-x="1710" d="M104 287.5q0 130.5 89.5 209t259.5 78.5h303v97q0 111 -59.5 166t-178 55t-174 -25.5t-100.5 -89.5l-101 92q68 88 151 119t206 31q270 0 354 -158q106 158 309 158t311.5 -131t108.5 -357v-67h-682q0 -166 77 -257t222 -91q88 0 145.5 27.5t116.5 86.5l103 -88 q-79 -79 -142 -107q-108 -48 -231 -48q-252 0 -358 174q-70 -98 -154 -136t-201.5 -38t-184.5 21.5t-109 64.5q-81 83 -81 213.5zM248 287q0 -88 55 -130t148.5 -42t149.5 10t105.5 58t49.5 173v109h-283q-225 0 -225 -178zM901 575h535q-7 108 -33.5 173t-90 106t-143.5 41 t-143 -41t-85.5 -96.5t-29 -88t-10.5 -94.5z" />
<glyph unicode="&#xe7;" horiz-adv-x="1011" d="M129 504q0 248 128 386q121 130 318 130q104 0 179 -33t153 -117l-100 -94q-57 63 -108.5 88t-124.5 25q-149 0 -232 -115q-66 -92 -66 -270q0 -277 166 -356q60 -29 132.5 -29t124 25.5t108.5 88.5l100 -96q-78 -84 -152.5 -116.5t-175 -32.5t-181.5 31.5t-141 96.5 q-128 137 -128 388zM358 -442l146 305h137l-121 -305h-162z" />
<glyph unicode="&#xe8;" horiz-adv-x="1085" d="M129 498.5q0 251.5 110.5 386.5t305.5 135t303 -131t108 -357v-67h-680q0 -166 76 -257t221 -91q88 0 146.5 27.5t118.5 86.5l100 -88q-80 -80 -141 -108q-104 -47 -216 -47t-193 30.5t-138 93.5q-121 135 -121 386.5zM276 575h533q-6 94 -14.5 121t-16.5 47 q-29 70 -92 111t-143 41t-143.5 -41t-86 -96.5t-28.5 -88t-9 -94.5zM293 1530h176l180 -313h-135z" />
<glyph unicode="&#xe9;" horiz-adv-x="1085" d="M129 498.5q0 251.5 110.5 386.5t305.5 135t303 -131t108 -357v-67h-680q0 -166 76 -257t221 -91q88 0 146.5 27.5t118.5 86.5l100 -88q-80 -80 -141 -108q-104 -47 -216 -47t-193 30.5t-138 93.5q-121 135 -121 386.5zM276 575h533q-6 94 -14.5 121t-16.5 47 q-29 70 -92 111t-143 41t-143.5 -41t-86 -96.5t-28.5 -88t-9 -94.5zM449 1217l180 313h176l-221 -313h-135z" />
<glyph unicode="&#xea;" horiz-adv-x="1085" d="M129 498.5q0 251.5 110.5 386.5t305.5 135t303 -131t108 -357v-67h-680q0 -166 76 -257t221 -91q88 0 146.5 27.5t118.5 86.5l100 -88q-80 -80 -141 -108q-104 -47 -216 -47t-193 30.5t-138 93.5q-121 135 -121 386.5zM223 1217l256 313h140l256 -313h-142l-184 213 l-184 -213h-142zM276 575h533q-6 94 -14.5 121t-16.5 47q-29 70 -92 111t-143 41t-143.5 -41t-86 -96.5t-28.5 -88t-9 -94.5z" />
<glyph unicode="&#xeb;" horiz-adv-x="1085" d="M129 498.5q0 251.5 110.5 386.5t305.5 135t303 -131t108 -357v-67h-680q0 -166 76 -257t221 -91q88 0 146.5 27.5t118.5 86.5l100 -88q-80 -80 -141 -108q-104 -47 -216 -47t-193 30.5t-138 93.5q-121 135 -121 386.5zM258 1233v182h148v-182h-148zM276 575h533 q-6 94 -14.5 121t-16.5 47q-29 70 -92 111t-143 41t-143.5 -41t-86 -96.5t-28.5 -88t-9 -94.5zM692 1233v182h148v-182h-148z" />
<glyph unicode="&#xec;" horiz-adv-x="518" d="M39 1530h176l180 -313h-135zM184 0v1008h148v-1008h-148z" />
<glyph unicode="&#xed;" horiz-adv-x="518" d="M138 1217l180 313h176l-221 -313h-135zM184 0v1008h148v-1008h-148z" />
<glyph unicode="&#xee;" horiz-adv-x="518" d="M-66 1217l256 313h140l256 -313h-142l-184 213l-184 -213h-142zM184 0v1008h148v-1008h-148z" />
<glyph unicode="&#xef;" horiz-adv-x="518" d="M-35 1233v182h148v-182h-148zM184 0v1008h148v-1008h-148zM399 1233v182h148v-182h-148z" />
<glyph unicode="&#xf0;" horiz-adv-x="1085" d="M135 500q0 117 21.5 219t107.5 189q113 115 321 96q40 -3 74 -19l-118 203h-238v106h180l-96 168h154l96 -168h168v-106h-111l129 -227q82 -144 100.5 -215.5t23.5 -124.5t5 -145.5t-22.5 -195t-100.5 -180.5q-108 -112 -286 -112q-179 0 -287 112q-78 78 -99.5 180.5 t-21.5 219.5zM283 478.5q0 -64.5 12 -147.5t76.5 -147.5t172.5 -64.5t172 64.5t76.5 147.5t12.5 147.5t-2 107.5t-11 83q-18 87 -67 140q-74 74 -181 74t-182 -74q-70 -70 -77 -223q-2 -43 -2 -107.5z" />
<glyph unicode="&#xf1;" horiz-adv-x="1150" d="M184 0v1008h148v-111q107 123 276.5 123t268.5 -98t100 -277v-645h-148v621q0 135 -66.5 201.5t-180.5 66.5q-115 0 -182.5 -67.5t-67.5 -200.5v-621h-148zM254 1343q93 93 156 102q20 3 52 3q45 0 105 -34.5t85.5 -45t52.5 -10.5t53.5 10t71.5 55l76 -73 q-70 -70 -115 -87.5t-84 -17.5q-64 0 -141 47q-29 16 -56.5 29.5t-55.5 13.5t-53.5 -10t-70.5 -55z" />
<glyph unicode="&#xf2;" horiz-adv-x="1085" d="M131 504q0 133 19 201q35 131 96 192q123 123 297 123q173 0 288 -115q76 -78 99.5 -181t23.5 -220t-23.5 -220.5t-88.5 -169.5q-124 -126 -299 -126t-289 114q-123 123 -123 402zM266 1530h176l180 -313h-135zM279 504q0 -236 81 -311q74 -74 184 -74t183 74 q71 71 78 225q2 43 2 86q0 164 -37 246q-16 36 -43 65q-74 74 -183.5 74t-183.5 -74q-72 -72 -79 -225q-2 -43 -2 -86z" />
<glyph unicode="&#xf3;" horiz-adv-x="1085" d="M131 504q0 133 19 201q35 131 96 192q123 123 297 123q173 0 288 -115q76 -78 99.5 -181t23.5 -220t-23.5 -220.5t-88.5 -169.5q-124 -126 -299 -126t-289 114q-123 123 -123 402zM279 504q0 -236 81 -311q74 -74 184 -74t183 74q71 71 78 225q2 43 2 86q0 164 -37 246 q-16 36 -43 65q-74 74 -183.5 74t-183.5 -74q-72 -72 -79 -225q-2 -43 -2 -86zM443 1217l180 313h176l-221 -313h-135z" />
<glyph unicode="&#xf4;" horiz-adv-x="1085" d="M131 504q0 133 19 201q35 131 96 192q123 123 297 123q173 0 288 -115q76 -78 99.5 -181t23.5 -220t-23.5 -220.5t-88.5 -169.5q-124 -126 -299 -126t-289 114q-123 123 -123 402zM217 1217l256 313h140l256 -313h-142l-184 213l-184 -213h-142zM279 504q0 -236 81 -311 q74 -74 184 -74t183 74q71 71 78 225q2 43 2 86q0 164 -37 246q-16 36 -43 65q-74 74 -183.5 74t-183.5 -74q-72 -72 -79 -225q-2 -43 -2 -86z" />
<glyph unicode="&#xf5;" horiz-adv-x="1085" d="M131 504q0 133 19 201q35 131 96 192q123 123 297 123q173 0 288 -115q76 -78 99.5 -181t23.5 -220t-23.5 -220.5t-88.5 -169.5q-124 -126 -299 -126t-289 114q-123 123 -123 402zM213 1343q93 93 156 102q20 3 52 3q45 0 105 -34.5t85.5 -45t52.5 -10.5t53.5 10t71.5 55 l76 -73q-70 -70 -115 -87.5t-84 -17.5q-64 0 -141 47q-29 16 -56.5 29.5t-55.5 13.5t-53.5 -10t-70.5 -55zM279 504q0 -236 81 -311q74 -74 184 -74t183 74q71 71 78 225q2 43 2 86q0 164 -37 246q-16 36 -43 65q-74 74 -183.5 74t-183.5 -74q-72 -72 -79 -225 q-2 -43 -2 -86z" />
<glyph unicode="&#xf6;" horiz-adv-x="1085" d="M131 504q0 133 19 201q35 131 96 192q123 123 297 123q173 0 288 -115q76 -78 99.5 -181t23.5 -220t-23.5 -220.5t-88.5 -169.5q-124 -126 -299 -126t-289 114q-123 123 -123 402zM252 1233v182h148v-182h-148zM279 504q0 -236 81 -311q74 -74 184 -74t183 74 q71 71 78 225q2 43 2 86q0 164 -37 246q-16 36 -43 65q-74 74 -183.5 74t-183.5 -74q-72 -72 -79 -225q-2 -43 -2 -86zM686 1233v182h148v-182h-148z" />
<glyph unicode="&#xf7;" d="M104 483v138h861v-138h-861zM446 100v176h177v-176h-177zM446 827v177h177v-177h-177z" />
<glyph unicode="&#xf8;" horiz-adv-x="1085" d="M131 474q0 87 5 143.5t18 106.5q31 112 100 181q115 115 303 115q106 0 201 -55l80 133h114l-116 -197q74 -78 96 -179t22 -218t-23.5 -220.5t-88.5 -169.5q-124 -126 -299 -126q-123 0 -215 55l-78 -133h-117l117 196q-74 78 -96.5 179.5t-22.5 188.5zM279 490 q0 -177 51 -259l360 615q-61 43 -158.5 43t-171.5 -74q-72 -72 -79 -225q-2 -43 -2 -100zM395 164q63 -45 161 -45t171 74q71 71 78 225q2 43 2 100.5t-7 130t-42 127.5z" />
<glyph unicode="&#xf9;" horiz-adv-x="1153" d="M174 365v643h148v-621q0 -135 65.5 -201.5t179.5 -66.5q115 0 183.5 67.5t68.5 200.5v621h148v-1008h-146v113q-109 -125 -279.5 -125t-265.5 94q-102 102 -102 283zM313 1530h176l180 -313h-135z" />
<glyph unicode="&#xfa;" horiz-adv-x="1153" d="M174 365v643h148v-621q0 -135 65.5 -201.5t179.5 -66.5q115 0 183.5 67.5t68.5 200.5v621h148v-1008h-146v113q-109 -125 -279.5 -125t-265.5 94q-102 102 -102 283zM469 1217l180 313h176l-221 -313h-135z" />
<glyph unicode="&#xfb;" horiz-adv-x="1153" d="M174 365v643h148v-621q0 -135 65.5 -201.5t179.5 -66.5q115 0 183.5 67.5t68.5 200.5v621h148v-1008h-146v113q-109 -125 -279.5 -125t-265.5 94q-102 102 -102 283zM243 1217l256 313h140l256 -313h-142l-184 213l-184 -213h-142z" />
<glyph unicode="&#xfc;" horiz-adv-x="1153" d="M174 365v643h148v-621q0 -135 65.5 -201.5t179.5 -66.5q115 0 183.5 67.5t68.5 200.5v621h148v-1008h-146v113q-109 -125 -279.5 -125t-265.5 94q-102 102 -102 283zM278 1233v182h148v-182h-148zM712 1233v182h148v-182h-148z" />
<glyph unicode="&#xfd;" horiz-adv-x="913" d="M23 1008h159l277 -809l274 809h160l-459 -1252q-68 -188 -268 -188h-64v131h45q76 0 109 27.5t57 97.5l72 196zM359 1217l180 313h176l-221 -313h-135z" />
<glyph unicode="&#xfe;" horiz-adv-x="1118" d="M184 -451v1909h148v-567q61 78 130.5 103.5t150.5 25.5q227 0 311 -176q45 -93 53 -187t8 -153q0 -305 -123 -428q-88 -88 -246 -88q-84 0 -153.5 26.5t-130.5 104.5v-570h-148zM332 504q0 -177 44 -266q59 -119 210 -119q214 0 244 241q8 70 8 144q0 179 -44 266 q-59 119 -208 119q-214 0 -245 -241q-9 -70 -9 -144z" />
<glyph unicode="&#xff;" horiz-adv-x="913" d="M23 1008h159l277 -809l274 809h160l-459 -1252q-68 -188 -268 -188h-64v131h45q76 0 109 27.5t57 97.5l72 196zM168 1233v182h148v-182h-148zM602 1233v182h148v-182h-148z" />
<glyph unicode="&#x152;" horiz-adv-x="2025" d="M156 729q0 270 15 350t43 134.5t79 105.5q152 152 372.5 151.5t352.5 -163.5v151h889v-137h-733l2 -520h622v-131h-622l-2 -533h737v-137h-893v152q-133 -164 -353 -164t-372 151q-95 95 -120 229q-17 91 -17 361zM311 729q0 -240 13.5 -311.5t34 -111.5t61.5 -82 t107.5 -69.5t138.5 -27.5q150 0 252 104q63 63 84 171q16 87 16 327t-13.5 311.5t-33 111.5t-60 82t-107.5 69.5t-138 27.5q-152 0 -252 -104q-67 -67 -86 -171q-17 -87 -17 -327z" />
<glyph unicode="&#x153;" horiz-adv-x="1763" d="M131 504q0 133 19 201q35 131 96 192q123 123 297 123q115 0 206 -51t138 -144q104 195 334 195q197 0 305 -131t108 -357v-67h-680q0 -166 76 -257t221 -91q88 0 146.5 27.5t118.5 86.5l100 -88q-80 -80 -141 -108q-104 -47 -228 -47q-254 0 -362 194 q-47 -92 -137.5 -143t-193.5 -51q-186 0 -300 114q-123 123 -123 402zM279 504q0 -236 81 -311q74 -74 184 -74t183 74q71 71 78 225q2 43 2 86q0 164 -37 246q-16 36 -43 65q-74 74 -183.5 74t-183.5 -74q-72 -72 -79 -225q-2 -43 -2 -86zM954 575h535q-7 105 -34.5 171.5 t-91 107.5t-142.5 41q-80 0 -143.5 -41t-86 -96.5t-29 -88t-8.5 -94.5z" />
<glyph unicode="&#x178;" horiz-adv-x="1054" d="M16 1458h168l344 -698l340 698h168l-430 -856v-602h-155v602zM235 1616v182h148v-182h-148zM669 1616v182h148v-182h-148z" />
<glyph unicode="&#x2c6;" horiz-adv-x="1024" d="M186 1217l256 313h140l256 -313h-142l-184 213l-184 -213h-142z" />
<glyph unicode="&#x2dc;" horiz-adv-x="1024" d="M182 1343q93 93 156 102q20 3 52 3q45 0 105 -34.5t85.5 -45t52.5 -10.5t53.5 10t71.5 55l76 -73q-70 -70 -115 -87.5t-84 -17.5q-64 0 -141 47q-29 16 -56.5 29.5t-55.5 13.5t-53.5 -10t-70.5 -55z" />
<glyph unicode="&#x2000;" horiz-adv-x="1009" />
<glyph unicode="&#x2001;" horiz-adv-x="2018" />
<glyph unicode="&#x2002;" horiz-adv-x="1009" />
<glyph unicode="&#x2003;" horiz-adv-x="2018" />
<glyph unicode="&#x2004;" horiz-adv-x="672" />
<glyph unicode="&#x2005;" horiz-adv-x="504" />
<glyph unicode="&#x2006;" horiz-adv-x="336" />
<glyph unicode="&#x2007;" horiz-adv-x="336" />
<glyph unicode="&#x2008;" horiz-adv-x="252" />
<glyph unicode="&#x2009;" horiz-adv-x="403" />
<glyph unicode="&#x200a;" horiz-adv-x="112" />
<glyph unicode="&#x2010;" horiz-adv-x="872" d="M156 483v138h561v-138h-561z" />
<glyph unicode="&#x2011;" horiz-adv-x="872" d="M156 483v138h561v-138h-561z" />
<glyph unicode="&#x2012;" horiz-adv-x="872" d="M156 483v138h561v-138h-561z" />
<glyph unicode="&#x2013;" d="M106 483v138h857v-138h-857z" />
<glyph unicode="&#x2014;" horiz-adv-x="1871" d="M156 483v140h1560v-140h-1560z" />
<glyph unicode="&#x2018;" horiz-adv-x="538" d="M180 1286v172l178 162v-334h-178z" />
<glyph unicode="&#x2019;" horiz-adv-x="538" d="M180 1124v334h178v-172z" />
<glyph unicode="&#x201a;" horiz-adv-x="538" d="M180 -162v334h178v-172z" />
<glyph unicode="&#x201c;" horiz-adv-x="888" d="M180 1286v172l178 162v-334h-178zM528 1286v172l181 162v-334h-181z" />
<glyph unicode="&#x201d;" horiz-adv-x="888" d="M180 1124v334h178v-172zM528 1124v334h181v-172z" />
<glyph unicode="&#x201e;" horiz-adv-x="888" d="M180 -162v334h178v-172zM528 -162v334h181v-172z" />
<glyph unicode="&#x2022;" horiz-adv-x="1089" d="M211 684q0 136 98 236q97 98 236 98q138 0 235 -98q99 -101 99 -236t-99 -236q-97 -98 -235 -98q-139 0 -236 98q-98 100 -98 236z" />
<glyph unicode="&#x2026;" horiz-adv-x="1550" d="M180 0v188h189v-188h-189zM680 0v188h188v-188h-188zM1182 0v188h188v-188h-188z" />
<glyph unicode="&#x202f;" horiz-adv-x="403" />
<glyph unicode="&#x2039;" horiz-adv-x="671" d="M82 549l430 430v-184l-246 -246l246 -248v-182z" />
<glyph unicode="&#x203a;" horiz-adv-x="671" d="M160 119v182l248 248l-248 246v184l430 -430z" />
<glyph unicode="&#x205f;" horiz-adv-x="504" />
<glyph unicode="&#x2122;" horiz-adv-x="1718" d="M74 1350v108h604v-108h-244v-766h-119v766h-241zM831 584v874h119l267 -530l266 530h116v-874h-116v630l-209 -413h-115l-209 413v-630h-119z" />
<glyph unicode="&#xe000;" horiz-adv-x="1003" d="M0 0v1004h1004v-1004h-1004z" />
<glyph unicode="&#xfb01;" horiz-adv-x="1150" d="M86 889v112h129v191q0 184 143 248q48 22 113 22h107v-127h-80q-136 0 -136 -147v-187h216v-112h-216v-889h-147v889h-129zM807 1309v151h168v-151h-168zM817 0v1001h148v-1001h-148z" />
<glyph unicode="&#xfb02;" horiz-adv-x="1232" d="M86 889v112h129v191q0 184 143 248q48 22 113 22h107v-127h-80q-136 0 -136 -147v-187h216v-112h-216v-889h-147v889h-129zM809 268v1190h147v-1184q0 -74 29 -110.5t107 -36.5h82v-127h-107q-133 0 -195.5 77t-62.5 191z" />
</font>
</defs>
</svg>
